<svg xmlns="http://www.w3.org/2000/svg" width="313.967" height="159.352" viewBox="0 0 313.967 159.352"><g transform="translate(-666.343 -414.588)"><path d="M16.64,48.3V-5.85H.343V-10.9H38.355V-5.85H22.018V48.3ZM52.671-6.214V15.663h5.419q7.522,0,10.494-2.406t2.972-8.189q0-6.106-3.073-8.694T58.089-6.214ZM83.242,48.3H76.691L55.906,20.071H52.671V48.3H47.292V-10.9H58.17q9.624,0,14.416,4T77.379,5.23q0,6.915-4.1,10.878t-11.3,3.963Zm14.8-24.668h20.624L108.557-2.13ZM82.919,48.3l26-61.548L133.831,48.3h-5.864L120.405,28.24H96.223L88.378,48.3ZM188.019-.067A31.738,31.738,0,0,0,179-5.688a26.193,26.193,0,0,0-9.705-1.82q-11.485,0-18.662,7.279t-7.178,18.966a29.886,29.886,0,0,0,1.759,10.555,23.443,23.443,0,0,0,5.358,8.33,24.365,24.365,0,0,0,8.148,5.419,25.964,25.964,0,0,0,9.847,1.86,29.28,29.28,0,0,0,9.948-1.739,32.676,32.676,0,0,0,9.18-5.136v6.308a38.53,38.53,0,0,1-9.24,4.1,34,34,0,0,1-9.645,1.436,33.3,33.3,0,0,1-12.293-2.305,29.4,29.4,0,0,1-10.069-6.47,28.55,28.55,0,0,1-6.551-9.948,33.667,33.667,0,0,1-2.224-12.415,33.164,33.164,0,0,1,2.285-12.374,28.14,28.14,0,0,1,6.571-9.907,29.546,29.546,0,0,1,10.049-6.389,33.245,33.245,0,0,1,12.233-2.305A34.046,34.046,0,0,1,179.3-10.682a28.037,28.037,0,0,1,8.8,4.671ZM199.665,48.3V-10.9h5.378V16.836L231.814-10.9h7.036L210.786,17.4l29.4,30.9h-7.8L205.044,18.251V48.3Zm47.556,0V-10.9H252.6V48.3Zm20.139,0v-61.71l41.935,49.537V-10.9h5.014V50.036L272.415.418V48.3Z" transform="translate(666 428)" fill="#464545" opacity="0.9"/><path d="M.82,52.3,10.08,41.821a14.2,14.2,0,0,0,5.641,6.785,15.9,15.9,0,0,0,8.727,2.474q5.854,0,9.259-2.767a9.1,9.1,0,0,0,3.406-7.45q0-5.534-11.335-11.015-3.672-1.756-5.8-2.874Q9.76,21.653,5.822,16.571A19.18,19.18,0,0,1,1.885,4.464,19.5,19.5,0,0,1,9.521-11.367q7.636-6.2,19.822-6.2a27.885,27.885,0,0,1,12.213,2.474,24.838,24.838,0,0,1,9.073,7.743L40.785,2.07a12.043,12.043,0,0,0-4.656-5.082,13.762,13.762,0,0,0-7-1.676,12.233,12.233,0,0,0-7.982,2.474A7.892,7.892,0,0,0,18.115,4.2q0,6.173,12.027,11.282,2.395,1.011,3.672,1.6,9.9,4.523,14.661,10.217a19.674,19.674,0,0,1,4.763,12.984q0,10.962-7.477,17.481T25.672,64.278a34.936,34.936,0,0,1-15.326-3.086A20.726,20.726,0,0,1,.82,52.3ZM95.968-1.549V62.2H79.259V-1.549H60.208V-15.7h54.811V-1.549ZM192.925-15.7V32.775q0,15.858-8.355,23.681T159.4,64.278q-17.082,0-25.437-7.823t-8.355-23.681V-15.7h16.55V30.167q0,9.632,4.257,14.5t12.718,4.869q8.514,0,12.878-4.9t4.364-14.474V-15.7ZM210.167,62.2V-15.7h45.871V-1.655H226.823V14.362h29.215V28.517H226.823V62.2Zm58.749,0V-15.7h45.871V-1.655H285.572V14.362h29.215V28.517H285.572V62.2Z" transform="translate(665.522 509.662)" fill="#fa7f60"/></g></svg>